<mxfile host="app.diagrams.net" modified="2024-02-24T19:12:49.934Z" agent="Mozilla/5.0 (Windows NT 10.0; Win64; x64) AppleWebKit/537.36 (KHTML, like Gecko) Chrome/121.0.0.0 Safari/537.36" etag="qP8yW3MkAYrAFG4W7WwE" version="23.1.6" type="device">
  <diagram id="4KmrHly_td54Xo90lVY-" name="Página-1">
    <mxGraphModel dx="1257" dy="1789" grid="1" gridSize="10" guides="1" tooltips="1" connect="1" arrows="1" fold="1" page="1" pageScale="1" pageWidth="827" pageHeight="1169" math="0" shadow="0">
      <root>
        <mxCell id="0" />
        <mxCell id="1" parent="0" />
        <mxCell id="VGThnKlNjhgSjyyPVOPz-1" value="&lt;b style=&quot;font-size: 15px;&quot;&gt;&lt;font face=&quot;Comic Sans MS&quot;&gt;Evento&lt;span style=&quot;white-space: pre;&quot;&gt;&#x9;&lt;/span&gt;&lt;/font&gt;&lt;/b&gt;" style="rounded=0;whiteSpace=wrap;html=1;fillColor=#d5e8d4;strokeColor=#82b366;dashed=1;dashPattern=12 12;" parent="1" vertex="1">
          <mxGeometry x="38" y="178" width="120" height="60" as="geometry" />
        </mxCell>
        <mxCell id="VGThnKlNjhgSjyyPVOPz-2" value="&lt;b style=&quot;font-size: 15px;&quot;&gt;&lt;font face=&quot;Comic Sans MS&quot;&gt;Cliente&amp;nbsp;&lt;span style=&quot;white-space: pre;&quot;&gt;&#x9;&lt;/span&gt;&lt;/font&gt;&lt;/b&gt;" style="rounded=0;whiteSpace=wrap;html=1;fillColor=#d5e8d4;strokeColor=#82b366;dashed=1;dashPattern=12 12;" parent="1" vertex="1">
          <mxGeometry x="240" y="97" width="120" height="60" as="geometry" />
        </mxCell>
        <mxCell id="VGThnKlNjhgSjyyPVOPz-5" value="&lt;font face=&quot;Comic Sans MS&quot; style=&quot;font-size: 15px;&quot;&gt;&lt;b&gt;Asiento&lt;/b&gt;&lt;/font&gt;" style="rounded=0;whiteSpace=wrap;html=1;fillColor=#d5e8d4;strokeColor=#82b366;dashed=1;dashPattern=12 12;" parent="1" vertex="1">
          <mxGeometry x="640" y="100" width="120" height="60" as="geometry" />
        </mxCell>
        <mxCell id="VGThnKlNjhgSjyyPVOPz-7" value="&lt;font face=&quot;Comic Sans MS&quot; size=&quot;1&quot;&gt;&lt;b style=&quot;font-size: 15px;&quot;&gt;Reserva&lt;/b&gt;&lt;/font&gt;" style="rounded=0;whiteSpace=wrap;html=1;dashed=1;dashPattern=12 12;fillColor=#d5e8d4;strokeColor=#82b366;" parent="1" vertex="1">
          <mxGeometry x="440" y="178" width="120" height="60" as="geometry" />
        </mxCell>
        <mxCell id="VGThnKlNjhgSjyyPVOPz-21" value="Id&lt;span style=&quot;white-space: pre;&quot;&gt;&#x9;&lt;/span&gt;" style="ellipse;whiteSpace=wrap;html=1;" parent="1" vertex="1">
          <mxGeometry x="50" y="278" width="100" height="50" as="geometry" />
        </mxCell>
        <mxCell id="VGThnKlNjhgSjyyPVOPz-22" value="Nombre" style="ellipse;whiteSpace=wrap;html=1;" parent="1" vertex="1">
          <mxGeometry x="50" y="358" width="100" height="50" as="geometry" />
        </mxCell>
        <mxCell id="VGThnKlNjhgSjyyPVOPz-23" value="Fecha" style="ellipse;whiteSpace=wrap;html=1;" parent="1" vertex="1">
          <mxGeometry x="51" y="438" width="100" height="50" as="geometry" />
        </mxCell>
        <mxCell id="VGThnKlNjhgSjyyPVOPz-24" value="Id_Evento" style="ellipse;whiteSpace=wrap;html=1;" parent="1" vertex="1">
          <mxGeometry x="650" y="360" width="100" height="50" as="geometry" />
        </mxCell>
        <mxCell id="VGThnKlNjhgSjyyPVOPz-25" value="Id_Cliente" style="ellipse;whiteSpace=wrap;html=1;" parent="1" vertex="1">
          <mxGeometry x="451" y="438" width="100" height="50" as="geometry" />
        </mxCell>
        <mxCell id="VGThnKlNjhgSjyyPVOPz-26" value="Apellido" style="ellipse;whiteSpace=wrap;html=1;" parent="1" vertex="1">
          <mxGeometry x="250" y="358" width="100" height="50" as="geometry" />
        </mxCell>
        <mxCell id="VGThnKlNjhgSjyyPVOPz-27" value="N° Asientos" style="ellipse;whiteSpace=wrap;html=1;" parent="1" vertex="1">
          <mxGeometry x="651" y="280" width="100" height="50" as="geometry" />
        </mxCell>
        <mxCell id="VGThnKlNjhgSjyyPVOPz-28" value="Id_Evento" style="ellipse;whiteSpace=wrap;html=1;" parent="1" vertex="1">
          <mxGeometry x="450" y="358" width="100" height="50" as="geometry" />
        </mxCell>
        <mxCell id="VGThnKlNjhgSjyyPVOPz-29" value="Nombre&amp;nbsp;&lt;span style=&quot;white-space: pre;&quot;&gt;&#x9;&lt;/span&gt;" style="ellipse;whiteSpace=wrap;html=1;" parent="1" vertex="1">
          <mxGeometry x="250" y="278" width="100" height="50" as="geometry" />
        </mxCell>
        <mxCell id="VGThnKlNjhgSjyyPVOPz-30" value="Id" style="ellipse;whiteSpace=wrap;html=1;" parent="1" vertex="1">
          <mxGeometry x="650" y="200" width="100" height="50" as="geometry" />
        </mxCell>
        <mxCell id="VGThnKlNjhgSjyyPVOPz-31" value="Id&lt;span style=&quot;white-space: pre;&quot;&gt;&#x9;&lt;/span&gt;" style="ellipse;whiteSpace=wrap;html=1;" parent="1" vertex="1">
          <mxGeometry x="450" y="278" width="100" height="50" as="geometry" />
        </mxCell>
        <mxCell id="VGThnKlNjhgSjyyPVOPz-32" value="Id" style="ellipse;whiteSpace=wrap;html=1;" parent="1" vertex="1">
          <mxGeometry x="250" y="198" width="100" height="50" as="geometry" />
        </mxCell>
        <mxCell id="VGThnKlNjhgSjyyPVOPz-33" value="" style="endArrow=none;html=1;rounded=0;entryX=0.5;entryY=1;entryDx=0;entryDy=0;" parent="1" target="VGThnKlNjhgSjyyPVOPz-1" edge="1">
          <mxGeometry width="50" height="50" relative="1" as="geometry">
            <mxPoint x="99.5" y="278" as="sourcePoint" />
            <mxPoint x="100.5" y="238" as="targetPoint" />
          </mxGeometry>
        </mxCell>
        <mxCell id="VGThnKlNjhgSjyyPVOPz-34" value="" style="endArrow=none;html=1;rounded=0;" parent="1" edge="1">
          <mxGeometry width="50" height="50" relative="1" as="geometry">
            <mxPoint x="101" y="358" as="sourcePoint" />
            <mxPoint x="100.5" y="328" as="targetPoint" />
          </mxGeometry>
        </mxCell>
        <mxCell id="VGThnKlNjhgSjyyPVOPz-35" value="" style="endArrow=none;html=1;rounded=0;" parent="1" edge="1">
          <mxGeometry width="50" height="50" relative="1" as="geometry">
            <mxPoint x="101" y="438" as="sourcePoint" />
            <mxPoint x="101" y="408" as="targetPoint" />
          </mxGeometry>
        </mxCell>
        <mxCell id="VGThnKlNjhgSjyyPVOPz-40" value="" style="endArrow=none;html=1;rounded=0;" parent="1" edge="1">
          <mxGeometry width="50" height="50" relative="1" as="geometry">
            <mxPoint x="501" y="358" as="sourcePoint" />
            <mxPoint x="500.5" y="328" as="targetPoint" />
          </mxGeometry>
        </mxCell>
        <mxCell id="VGThnKlNjhgSjyyPVOPz-41" value="" style="endArrow=none;html=1;rounded=0;" parent="1" edge="1">
          <mxGeometry width="50" height="50" relative="1" as="geometry">
            <mxPoint x="302" y="278" as="sourcePoint" />
            <mxPoint x="301.5" y="248" as="targetPoint" />
          </mxGeometry>
        </mxCell>
        <mxCell id="VGThnKlNjhgSjyyPVOPz-42" value="" style="endArrow=none;html=1;rounded=0;" parent="1" edge="1">
          <mxGeometry width="50" height="50" relative="1" as="geometry">
            <mxPoint x="702" y="280" as="sourcePoint" />
            <mxPoint x="701.5" y="250" as="targetPoint" />
          </mxGeometry>
        </mxCell>
        <mxCell id="VGThnKlNjhgSjyyPVOPz-43" value="" style="endArrow=none;html=1;rounded=0;" parent="1" edge="1">
          <mxGeometry width="50" height="50" relative="1" as="geometry">
            <mxPoint x="301.5" y="358" as="sourcePoint" />
            <mxPoint x="301.5" y="328" as="targetPoint" />
          </mxGeometry>
        </mxCell>
        <mxCell id="VGThnKlNjhgSjyyPVOPz-44" value="" style="endArrow=none;html=1;rounded=0;" parent="1" edge="1">
          <mxGeometry width="50" height="50" relative="1" as="geometry">
            <mxPoint x="499.5" y="438" as="sourcePoint" />
            <mxPoint x="499.5" y="408" as="targetPoint" />
          </mxGeometry>
        </mxCell>
        <mxCell id="VGThnKlNjhgSjyyPVOPz-45" value="" style="endArrow=none;html=1;rounded=0;" parent="1" edge="1">
          <mxGeometry width="50" height="50" relative="1" as="geometry">
            <mxPoint x="700.5" y="360" as="sourcePoint" />
            <mxPoint x="700.5" y="330" as="targetPoint" />
          </mxGeometry>
        </mxCell>
        <mxCell id="VGThnKlNjhgSjyyPVOPz-46" value="" style="endArrow=none;html=1;rounded=0;" parent="1" edge="1">
          <mxGeometry width="50" height="50" relative="1" as="geometry">
            <mxPoint x="301.5" y="198" as="sourcePoint" />
            <mxPoint x="302.5" y="158" as="targetPoint" />
          </mxGeometry>
        </mxCell>
        <mxCell id="VGThnKlNjhgSjyyPVOPz-47" value="" style="endArrow=none;html=1;rounded=0;" parent="1" edge="1">
          <mxGeometry width="50" height="50" relative="1" as="geometry">
            <mxPoint x="500.5" y="278" as="sourcePoint" />
            <mxPoint x="501.5" y="238" as="targetPoint" />
          </mxGeometry>
        </mxCell>
        <mxCell id="VGThnKlNjhgSjyyPVOPz-48" value="" style="endArrow=none;html=1;rounded=0;" parent="1" edge="1">
          <mxGeometry width="50" height="50" relative="1" as="geometry">
            <mxPoint x="702" y="200" as="sourcePoint" />
            <mxPoint x="703" y="160" as="targetPoint" />
          </mxGeometry>
        </mxCell>
        <mxCell id="VGThnKlNjhgSjyyPVOPz-49" value="Hora" style="ellipse;whiteSpace=wrap;html=1;" parent="1" vertex="1">
          <mxGeometry x="52" y="518" width="100" height="50" as="geometry" />
        </mxCell>
        <mxCell id="VGThnKlNjhgSjyyPVOPz-50" value="Lugar" style="ellipse;whiteSpace=wrap;html=1;" parent="1" vertex="1">
          <mxGeometry x="54" y="598" width="100" height="50" as="geometry" />
        </mxCell>
        <mxCell id="VGThnKlNjhgSjyyPVOPz-51" value="Tematica" style="ellipse;whiteSpace=wrap;html=1;" parent="1" vertex="1">
          <mxGeometry x="58" y="678" width="100" height="50" as="geometry" />
        </mxCell>
        <mxCell id="VGThnKlNjhgSjyyPVOPz-54" value="" style="endArrow=none;html=1;rounded=0;" parent="1" edge="1">
          <mxGeometry width="50" height="50" relative="1" as="geometry">
            <mxPoint x="101" y="519" as="sourcePoint" />
            <mxPoint x="101" y="489" as="targetPoint" />
          </mxGeometry>
        </mxCell>
        <mxCell id="VGThnKlNjhgSjyyPVOPz-55" value="" style="endArrow=none;html=1;rounded=0;" parent="1" edge="1">
          <mxGeometry width="50" height="50" relative="1" as="geometry">
            <mxPoint x="102" y="598" as="sourcePoint" />
            <mxPoint x="102" y="568" as="targetPoint" />
          </mxGeometry>
        </mxCell>
        <mxCell id="VGThnKlNjhgSjyyPVOPz-56" value="" style="endArrow=none;html=1;rounded=0;" parent="1" edge="1">
          <mxGeometry width="50" height="50" relative="1" as="geometry">
            <mxPoint x="104" y="677" as="sourcePoint" />
            <mxPoint x="104" y="647" as="targetPoint" />
          </mxGeometry>
        </mxCell>
        <mxCell id="VGThnKlNjhgSjyyPVOPz-63" value="Email" style="ellipse;whiteSpace=wrap;html=1;" parent="1" vertex="1">
          <mxGeometry x="250" y="438" width="100" height="50" as="geometry" />
        </mxCell>
        <mxCell id="VGThnKlNjhgSjyyPVOPz-64" value="Telefono" style="ellipse;whiteSpace=wrap;html=1;" parent="1" vertex="1">
          <mxGeometry x="250" y="518" width="100" height="50" as="geometry" />
        </mxCell>
        <mxCell id="VGThnKlNjhgSjyyPVOPz-66" value="" style="endArrow=none;html=1;rounded=0;" parent="1" edge="1">
          <mxGeometry width="50" height="50" relative="1" as="geometry">
            <mxPoint x="301.5" y="437" as="sourcePoint" />
            <mxPoint x="301.5" y="407" as="targetPoint" />
          </mxGeometry>
        </mxCell>
        <mxCell id="VGThnKlNjhgSjyyPVOPz-67" value="" style="endArrow=none;html=1;rounded=0;" parent="1" edge="1">
          <mxGeometry width="50" height="50" relative="1" as="geometry">
            <mxPoint x="301.5" y="517" as="sourcePoint" />
            <mxPoint x="301.5" y="487" as="targetPoint" />
          </mxGeometry>
        </mxCell>
        <mxCell id="VGThnKlNjhgSjyyPVOPz-69" value="FK" style="text;html=1;align=center;verticalAlign=middle;resizable=0;points=[];autosize=1;strokeColor=none;fillColor=none;" parent="1" vertex="1">
          <mxGeometry x="400" y="368" width="40" height="30" as="geometry" />
        </mxCell>
        <mxCell id="VGThnKlNjhgSjyyPVOPz-71" value="FK" style="text;html=1;align=center;verticalAlign=middle;resizable=0;points=[];autosize=1;strokeColor=none;fillColor=none;" parent="1" vertex="1">
          <mxGeometry x="400" y="448" width="40" height="30" as="geometry" />
        </mxCell>
        <mxCell id="VGThnKlNjhgSjyyPVOPz-72" value="N° Asientos" style="ellipse;whiteSpace=wrap;html=1;" parent="1" vertex="1">
          <mxGeometry x="450" y="517" width="100" height="50" as="geometry" />
        </mxCell>
        <mxCell id="VGThnKlNjhgSjyyPVOPz-73" value="Fecha Reserva" style="ellipse;whiteSpace=wrap;html=1;" parent="1" vertex="1">
          <mxGeometry x="451" y="597" width="100" height="50" as="geometry" />
        </mxCell>
        <mxCell id="VGThnKlNjhgSjyyPVOPz-74" value="Estado Reserva" style="ellipse;whiteSpace=wrap;html=1;" parent="1" vertex="1">
          <mxGeometry x="451" y="679" width="100" height="50" as="geometry" />
        </mxCell>
        <mxCell id="VGThnKlNjhgSjyyPVOPz-78" value="Estado" style="swimlane;fontStyle=0;childLayout=stackLayout;horizontal=1;startSize=30;horizontalStack=0;resizeParent=1;resizeParentMax=0;resizeLast=0;collapsible=1;marginBottom=0;whiteSpace=wrap;html=1;" parent="1" vertex="1">
          <mxGeometry x="461" y="751" width="140" height="120" as="geometry">
            <mxRectangle x="461" y="751" width="80" height="30" as="alternateBounds" />
          </mxGeometry>
        </mxCell>
        <mxCell id="VGThnKlNjhgSjyyPVOPz-79" value="Pendiente" style="text;strokeColor=none;fillColor=none;align=left;verticalAlign=middle;spacingLeft=4;spacingRight=4;overflow=hidden;points=[[0,0.5],[1,0.5]];portConstraint=eastwest;rotatable=0;whiteSpace=wrap;html=1;" parent="VGThnKlNjhgSjyyPVOPz-78" vertex="1">
          <mxGeometry y="30" width="140" height="30" as="geometry" />
        </mxCell>
        <mxCell id="VGThnKlNjhgSjyyPVOPz-80" value="Confirmado" style="text;strokeColor=none;fillColor=none;align=left;verticalAlign=middle;spacingLeft=4;spacingRight=4;overflow=hidden;points=[[0,0.5],[1,0.5]];portConstraint=eastwest;rotatable=0;whiteSpace=wrap;html=1;" parent="VGThnKlNjhgSjyyPVOPz-78" vertex="1">
          <mxGeometry y="60" width="140" height="30" as="geometry" />
        </mxCell>
        <mxCell id="VGThnKlNjhgSjyyPVOPz-81" value="Anulado" style="text;strokeColor=none;fillColor=none;align=left;verticalAlign=middle;spacingLeft=4;spacingRight=4;overflow=hidden;points=[[0,0.5],[1,0.5]];portConstraint=eastwest;rotatable=0;whiteSpace=wrap;html=1;" parent="VGThnKlNjhgSjyyPVOPz-78" vertex="1">
          <mxGeometry y="90" width="140" height="30" as="geometry" />
        </mxCell>
        <mxCell id="VGThnKlNjhgSjyyPVOPz-82" value="Estado" style="ellipse;whiteSpace=wrap;html=1;" parent="1" vertex="1">
          <mxGeometry x="650" y="438" width="100" height="50" as="geometry" />
        </mxCell>
        <mxCell id="VGThnKlNjhgSjyyPVOPz-84" value="" style="endArrow=none;html=1;rounded=0;" parent="1" edge="1">
          <mxGeometry width="50" height="50" relative="1" as="geometry">
            <mxPoint x="700.5" y="440" as="sourcePoint" />
            <mxPoint x="700.5" y="410" as="targetPoint" />
          </mxGeometry>
        </mxCell>
        <mxCell id="VGThnKlNjhgSjyyPVOPz-85" value="FK" style="text;html=1;align=center;verticalAlign=middle;resizable=0;points=[];autosize=1;strokeColor=none;fillColor=none;" parent="1" vertex="1">
          <mxGeometry x="600" y="368" width="40" height="30" as="geometry" />
        </mxCell>
        <mxCell id="VGThnKlNjhgSjyyPVOPz-86" value="" style="endArrow=classic;html=1;rounded=0;" parent="1" target="VGThnKlNjhgSjyyPVOPz-87" edge="1">
          <mxGeometry width="50" height="50" relative="1" as="geometry">
            <mxPoint x="700.52" y="488" as="sourcePoint" />
            <mxPoint x="700.52" y="528" as="targetPoint" />
          </mxGeometry>
        </mxCell>
        <mxCell id="VGThnKlNjhgSjyyPVOPz-87" value="Estado" style="swimlane;fontStyle=0;childLayout=stackLayout;horizontal=1;startSize=30;horizontalStack=0;resizeParent=1;resizeParentMax=0;resizeLast=0;collapsible=1;marginBottom=0;whiteSpace=wrap;html=1;" parent="1" vertex="1">
          <mxGeometry x="630" y="510" width="140" height="90" as="geometry">
            <mxRectangle x="630" y="510" width="80" height="30" as="alternateBounds" />
          </mxGeometry>
        </mxCell>
        <mxCell id="VGThnKlNjhgSjyyPVOPz-88" value="Disponible" style="text;strokeColor=none;fillColor=none;align=left;verticalAlign=middle;spacingLeft=4;spacingRight=4;overflow=hidden;points=[[0,0.5],[1,0.5]];portConstraint=eastwest;rotatable=0;whiteSpace=wrap;html=1;" parent="VGThnKlNjhgSjyyPVOPz-87" vertex="1">
          <mxGeometry y="30" width="140" height="30" as="geometry" />
        </mxCell>
        <mxCell id="VGThnKlNjhgSjyyPVOPz-89" value="Ocupado" style="text;strokeColor=none;fillColor=none;align=left;verticalAlign=middle;spacingLeft=4;spacingRight=4;overflow=hidden;points=[[0,0.5],[1,0.5]];portConstraint=eastwest;rotatable=0;whiteSpace=wrap;html=1;" parent="VGThnKlNjhgSjyyPVOPz-87" vertex="1">
          <mxGeometry y="60" width="140" height="30" as="geometry" />
        </mxCell>
        <mxCell id="VGThnKlNjhgSjyyPVOPz-91" value="" style="endArrow=classic;html=1;rounded=0;" parent="1" edge="1">
          <mxGeometry width="50" height="50" relative="1" as="geometry">
            <mxPoint x="501.03999999999996" y="729" as="sourcePoint" />
            <mxPoint x="500.52" y="751" as="targetPoint" />
          </mxGeometry>
        </mxCell>
        <mxCell id="VGThnKlNjhgSjyyPVOPz-94" value="" style="endArrow=none;html=1;rounded=0;" parent="1" edge="1">
          <mxGeometry width="50" height="50" relative="1" as="geometry">
            <mxPoint x="97.33" y="176.5" as="sourcePoint" />
            <mxPoint x="97" y="40" as="targetPoint" />
          </mxGeometry>
        </mxCell>
        <mxCell id="VGThnKlNjhgSjyyPVOPz-95" value="" style="endArrow=none;html=1;rounded=0;" parent="1" edge="1">
          <mxGeometry width="50" height="50" relative="1" as="geometry">
            <mxPoint x="96" y="40" as="sourcePoint" />
            <mxPoint x="222" y="40" as="targetPoint" />
          </mxGeometry>
        </mxCell>
        <mxCell id="VGThnKlNjhgSjyyPVOPz-97" value="" style="endArrow=none;html=1;rounded=0;exitX=0.5;exitY=0;exitDx=0;exitDy=0;" parent="1" source="VGThnKlNjhgSjyyPVOPz-7" edge="1">
          <mxGeometry width="50" height="50" relative="1" as="geometry">
            <mxPoint x="494.3599999999999" y="178.32" as="sourcePoint" />
            <mxPoint x="496" y="39" as="targetPoint" />
          </mxGeometry>
        </mxCell>
        <mxCell id="VGThnKlNjhgSjyyPVOPz-98" value="" style="endArrow=none;html=1;rounded=0;" parent="1" edge="1">
          <mxGeometry width="50" height="50" relative="1" as="geometry">
            <mxPoint x="499.5" y="517" as="sourcePoint" />
            <mxPoint x="499.5" y="487" as="targetPoint" />
          </mxGeometry>
        </mxCell>
        <mxCell id="VGThnKlNjhgSjyyPVOPz-100" value="" style="endArrow=none;html=1;rounded=0;" parent="1" edge="1">
          <mxGeometry width="50" height="50" relative="1" as="geometry">
            <mxPoint x="499.5" y="597" as="sourcePoint" />
            <mxPoint x="499.5" y="567" as="targetPoint" />
          </mxGeometry>
        </mxCell>
        <mxCell id="VGThnKlNjhgSjyyPVOPz-102" value="" style="endArrow=none;html=1;rounded=0;" parent="1" edge="1">
          <mxGeometry width="50" height="50" relative="1" as="geometry">
            <mxPoint x="499.5" y="678" as="sourcePoint" />
            <mxPoint x="499.5" y="648" as="targetPoint" />
          </mxGeometry>
        </mxCell>
        <mxCell id="VGThnKlNjhgSjyyPVOPz-104" value="" style="endArrow=none;html=1;rounded=0;" parent="1" edge="1">
          <mxGeometry width="50" height="50" relative="1" as="geometry">
            <mxPoint x="490" y="177" as="sourcePoint" />
            <mxPoint x="500" y="157" as="targetPoint" />
          </mxGeometry>
        </mxCell>
        <mxCell id="VGThnKlNjhgSjyyPVOPz-106" value="" style="endArrow=none;html=1;rounded=0;" parent="1" edge="1">
          <mxGeometry width="50" height="50" relative="1" as="geometry">
            <mxPoint x="511" y="178" as="sourcePoint" />
            <mxPoint x="500" y="158" as="targetPoint" />
          </mxGeometry>
        </mxCell>
        <mxCell id="VGThnKlNjhgSjyyPVOPz-108" value="" style="endArrow=none;html=1;rounded=0;" parent="1" edge="1">
          <mxGeometry width="50" height="50" relative="1" as="geometry">
            <mxPoint x="87" y="168" as="sourcePoint" />
            <mxPoint x="107" y="168" as="targetPoint" />
          </mxGeometry>
        </mxCell>
        <mxCell id="VGThnKlNjhgSjyyPVOPz-109" value="" style="endArrow=none;html=1;rounded=0;edgeStyle=orthogonalEdgeStyle;entryX=0;entryY=0.25;entryDx=0;entryDy=0;" parent="1" target="VGThnKlNjhgSjyyPVOPz-7" edge="1">
          <mxGeometry width="50" height="50" relative="1" as="geometry">
            <mxPoint x="360" y="130" as="sourcePoint" />
            <mxPoint x="410" y="200" as="targetPoint" />
            <Array as="points">
              <mxPoint x="400" y="131" />
              <mxPoint x="400" y="193" />
            </Array>
          </mxGeometry>
        </mxCell>
        <mxCell id="VGThnKlNjhgSjyyPVOPz-111" value="" style="endArrow=none;html=1;rounded=0;" parent="1" edge="1">
          <mxGeometry width="50" height="50" relative="1" as="geometry">
            <mxPoint x="445" y="183.25" as="sourcePoint" />
            <mxPoint x="440" y="183" as="targetPoint" />
          </mxGeometry>
        </mxCell>
        <mxCell id="VGThnKlNjhgSjyyPVOPz-112" value="" style="endArrow=none;html=1;rounded=0;" parent="1" edge="1">
          <mxGeometry width="50" height="50" relative="1" as="geometry">
            <mxPoint x="430" y="193" as="sourcePoint" />
            <mxPoint x="440" y="204" as="targetPoint" />
          </mxGeometry>
        </mxCell>
        <mxCell id="VGThnKlNjhgSjyyPVOPz-114" value="" style="endArrow=none;html=1;rounded=0;entryX=1;entryY=0.75;entryDx=0;entryDy=0;" parent="1" edge="1">
          <mxGeometry width="50" height="50" relative="1" as="geometry">
            <mxPoint x="366" y="123" as="sourcePoint" />
            <mxPoint x="366" y="141" as="targetPoint" />
          </mxGeometry>
        </mxCell>
        <mxCell id="VGThnKlNjhgSjyyPVOPz-115" value="" style="endArrow=none;html=1;rounded=0;edgeStyle=orthogonalEdgeStyle;entryX=0;entryY=0.25;entryDx=0;entryDy=0;" parent="1" target="VGThnKlNjhgSjyyPVOPz-5" edge="1">
          <mxGeometry width="50" height="50" relative="1" as="geometry">
            <mxPoint x="560" y="210" as="sourcePoint" />
            <mxPoint x="610" y="120" as="targetPoint" />
            <Array as="points">
              <mxPoint x="600" y="210" />
              <mxPoint x="600" y="120" />
              <mxPoint x="640" y="120" />
            </Array>
          </mxGeometry>
        </mxCell>
        <mxCell id="VGThnKlNjhgSjyyPVOPz-116" value="" style="endArrow=none;html=1;rounded=0;" parent="1" edge="1">
          <mxGeometry width="50" height="50" relative="1" as="geometry">
            <mxPoint x="630" y="119" as="sourcePoint" />
            <mxPoint x="640" y="109" as="targetPoint" />
          </mxGeometry>
        </mxCell>
        <mxCell id="VGThnKlNjhgSjyyPVOPz-117" value="" style="endArrow=none;html=1;rounded=0;" parent="1" edge="1">
          <mxGeometry width="50" height="50" relative="1" as="geometry">
            <mxPoint x="630" y="120.5" as="sourcePoint" />
            <mxPoint x="640" y="131.5" as="targetPoint" />
          </mxGeometry>
        </mxCell>
        <mxCell id="VGThnKlNjhgSjyyPVOPz-118" value="" style="endArrow=none;html=1;rounded=0;" parent="1" edge="1">
          <mxGeometry width="50" height="50" relative="1" as="geometry">
            <mxPoint x="560" y="198" as="sourcePoint" />
            <mxPoint x="570" y="209" as="targetPoint" />
          </mxGeometry>
        </mxCell>
        <mxCell id="VGThnKlNjhgSjyyPVOPz-119" value="" style="endArrow=none;html=1;rounded=0;" parent="1" edge="1">
          <mxGeometry width="50" height="50" relative="1" as="geometry">
            <mxPoint x="560" y="220" as="sourcePoint" />
            <mxPoint x="570" y="210" as="targetPoint" />
          </mxGeometry>
        </mxCell>
        <mxCell id="VGThnKlNjhgSjyyPVOPz-123" value="" style="endArrow=none;html=1;rounded=0;" parent="1" edge="1">
          <mxGeometry width="50" height="50" relative="1" as="geometry">
            <mxPoint x="430" y="193" as="sourcePoint" />
            <mxPoint x="433.63636363636374" y="197" as="targetPoint" />
          </mxGeometry>
        </mxCell>
        <mxCell id="VGThnKlNjhgSjyyPVOPz-125" value="" style="endArrow=none;html=1;rounded=0;" parent="1" edge="1">
          <mxGeometry width="50" height="50" relative="1" as="geometry">
            <mxPoint x="65.33" y="177.5" as="sourcePoint" />
            <mxPoint x="65" y="10" as="targetPoint" />
          </mxGeometry>
        </mxCell>
        <mxCell id="VGThnKlNjhgSjyyPVOPz-126" value="" style="endArrow=none;html=1;rounded=0;" parent="1" edge="1">
          <mxGeometry width="50" height="50" relative="1" as="geometry">
            <mxPoint x="66" y="11" as="sourcePoint" />
            <mxPoint x="380" y="10" as="targetPoint" />
          </mxGeometry>
        </mxCell>
        <mxCell id="VGThnKlNjhgSjyyPVOPz-127" value="" style="endArrow=none;html=1;rounded=0;" parent="1" edge="1">
          <mxGeometry width="50" height="50" relative="1" as="geometry">
            <mxPoint x="699" y="100" as="sourcePoint" />
            <mxPoint x="699.47" y="9.5" as="targetPoint" />
          </mxGeometry>
        </mxCell>
        <mxCell id="VGThnKlNjhgSjyyPVOPz-128" value="" style="endArrow=none;html=1;rounded=0;" parent="1" edge="1">
          <mxGeometry width="50" height="50" relative="1" as="geometry">
            <mxPoint x="689" y="100" as="sourcePoint" />
            <mxPoint x="699" y="80" as="targetPoint" />
          </mxGeometry>
        </mxCell>
        <mxCell id="VGThnKlNjhgSjyyPVOPz-129" value="" style="endArrow=none;html=1;rounded=0;" parent="1" edge="1">
          <mxGeometry width="50" height="50" relative="1" as="geometry">
            <mxPoint x="710" y="100" as="sourcePoint" />
            <mxPoint x="699" y="80" as="targetPoint" />
          </mxGeometry>
        </mxCell>
        <mxCell id="VGThnKlNjhgSjyyPVOPz-131" value="" style="endArrow=none;html=1;rounded=0;" parent="1" edge="1">
          <mxGeometry width="50" height="50" relative="1" as="geometry">
            <mxPoint x="56" y="168" as="sourcePoint" />
            <mxPoint x="76" y="168" as="targetPoint" />
          </mxGeometry>
        </mxCell>
        <mxCell id="6EiEhuD9LcmqMez7rilU-2" value="1:M" style="rhombus;whiteSpace=wrap;html=1;" parent="1" vertex="1">
          <mxGeometry x="224" y="15" width="80" height="50" as="geometry" />
        </mxCell>
        <mxCell id="6EiEhuD9LcmqMez7rilU-3" value="" style="endArrow=none;html=1;rounded=0;" parent="1" edge="1">
          <mxGeometry width="50" height="50" relative="1" as="geometry">
            <mxPoint x="304" y="39.5" as="sourcePoint" />
            <mxPoint x="500" y="40" as="targetPoint" />
          </mxGeometry>
        </mxCell>
        <mxCell id="6EiEhuD9LcmqMez7rilU-4" value="" style="endArrow=none;html=1;rounded=0;" parent="1" edge="1">
          <mxGeometry width="50" height="50" relative="1" as="geometry">
            <mxPoint x="430" y="194" as="sourcePoint" />
            <mxPoint x="440" y="184" as="targetPoint" />
          </mxGeometry>
        </mxCell>
        <mxCell id="6EiEhuD9LcmqMez7rilU-5" value="" style="endArrow=none;html=1;rounded=0;exitX=1;exitY=0.5;exitDx=0;exitDy=0;" parent="1" source="6EiEhuD9LcmqMez7rilU-6" edge="1">
          <mxGeometry width="50" height="50" relative="1" as="geometry">
            <mxPoint x="490" y="9" as="sourcePoint" />
            <mxPoint x="700" y="9" as="targetPoint" />
          </mxGeometry>
        </mxCell>
        <mxCell id="6EiEhuD9LcmqMez7rilU-6" value="1:M" style="rhombus;whiteSpace=wrap;html=1;" parent="1" vertex="1">
          <mxGeometry x="381" y="-15" width="80" height="50" as="geometry" />
        </mxCell>
        <mxCell id="6EiEhuD9LcmqMez7rilU-7" value="1:M" style="rhombus;whiteSpace=wrap;html=1;" parent="1" vertex="1">
          <mxGeometry x="360" y="135" width="80" height="50" as="geometry" />
        </mxCell>
        <mxCell id="6EiEhuD9LcmqMez7rilU-8" value="N:M" style="rhombus;whiteSpace=wrap;html=1;" parent="1" vertex="1">
          <mxGeometry x="560" y="128" width="80" height="50" as="geometry" />
        </mxCell>
      </root>
    </mxGraphModel>
  </diagram>
</mxfile>
